<?xml version="1.0" encoding="utf-8"?>
<!-- Generator: Adobe Illustrator 22.1.0, SVG Export Plug-In . SVG Version: 6.00 Build 0)  -->
<svg version="1.1" id="Calque_1" xmlns="http://www.w3.org/2000/svg" xmlns:xlink="http://www.w3.org/1999/xlink" x="0px" y="0px"
	 viewBox="0 0 200 100" style="enable-background:new 0 0 200 100;" xml:space="preserve">
<g>
	<path d="M42.1,40.4c-1,0.1-1.3,0.3-1.9,1.7c-0.4,1-2,4.7-3.2,7.8h-0.5c-1-2.7-2.3-6-3.2-8.1c-0.5-1.1-0.7-1.3-1.6-1.3v-0.5h3.9v0.5
		c-1.1,0.1-1.1,0.2-0.9,0.9c0.4,1.1,1.6,4,2.5,6.4h0c0.8-2,1.9-4.8,2.4-6.2c0.3-0.9,0.2-1-1-1.2v-0.5h3.5V40.4z"/>
	<path d="M42.9,49.7v-0.4c1.3-0.1,1.4-0.2,1.4-1.5v-5.9c0-1.3-0.1-1.4-1.4-1.5v-0.5h4.2v0.5c-1.2,0.1-1.4,0.2-1.4,1.5v5.9
		c0,1.3,0.1,1.4,1.4,1.5v0.4H42.9z"/>
	<path d="M57.7,47.1c-0.2,0.7-0.6,1.9-0.9,2.4c-0.5,0.1-1.8,0.4-2.9,0.4c-4,0-5.7-2.6-5.7-5c0-3.2,2.6-5.2,6.1-5.2
		c1.3,0,2.4,0.4,2.9,0.4c0.1,0.9,0.2,1.5,0.3,2.3L57,42.6c-0.4-1.7-1.4-2.3-3.1-2.3c-2.6,0-4,2.1-4,4.3c0,2.8,1.7,4.7,4.1,4.7
		c1.6,0,2.5-0.9,3.3-2.4L57.7,47.1z"/>
	<path d="M66.9,42.3c-0.2-0.7-0.3-1.1-0.5-1.4c-0.3-0.3-0.5-0.5-1.7-0.5h-1v7.3c0,1.2,0.1,1.4,1.6,1.5v0.4h-4.5v-0.4
		c1.4-0.1,1.5-0.3,1.5-1.5v-7.3h-0.9c-1.3,0-1.7,0.1-1.9,0.5c-0.2,0.3-0.3,0.7-0.5,1.4h-0.5c0.1-1,0.1-2,0.2-2.8H59
		c0.2,0.4,0.4,0.4,0.9,0.4h6.2c0.4,0,0.6-0.1,0.8-0.4h0.3c0,0.7,0.1,1.8,0.2,2.7L66.9,42.3z"/>
	<path d="M73.7,39.7c2.7,0,5.1,2,5.1,5c0,3.2-2.4,5.2-5.3,5.2c-2.9,0-5.2-2.1-5.2-5C68.3,42.2,70.3,39.7,73.7,39.7L73.7,39.7z
		 M73.3,40.3c-1.7,0-3.4,1.4-3.4,4.2c0,2.8,1.6,4.8,3.8,4.8c1.7,0,3.3-1.4,3.3-4.3C77.1,41.9,75.4,40.3,73.3,40.3L73.3,40.3z"/>
	<path d="M89.1,49.8c-0.2,0-0.4,0-0.5,0c-1.2-0.1-1.9-0.4-2.6-1.4c-0.5-0.7-1-1.6-1.5-2.4c-0.3-0.4-0.5-0.6-1.3-0.6h-0.4v2.3
		c0,1.3,0.1,1.4,1.4,1.5v0.4h-4.2v-0.4c1.2-0.1,1.4-0.2,1.4-1.5v-5.9c0-1.3-0.1-1.4-1.3-1.4v-0.5h3.9c1.2,0,1.9,0.1,2.5,0.5
		c0.6,0.4,1,1.1,1,2c0,1.3-0.8,2.1-1.9,2.5c0.3,0.5,0.9,1.5,1.4,2.2c0.6,0.8,0.9,1.2,1.2,1.6c0.4,0.4,0.7,0.6,1.1,0.7L89.1,49.8z
		 M83.4,44.9c0.8,0,1.3-0.1,1.7-0.4c0.6-0.5,0.8-1,0.8-1.8c0-1.6-1.1-2.2-2.2-2.2c-0.5,0-0.7,0.1-0.8,0.1c-0.1,0.1-0.2,0.3-0.2,0.6
		v3.7H83.4z"/>
	<path d="M98.3,39.9c2,0,3.5,0.4,4.4,1.3c0.8,0.7,1.3,1.8,1.3,3.2c0,1.8-0.7,3.1-1.9,4c-1.2,0.9-2.7,1.2-4.6,1.2h-3.8v-0.4
		c1.3-0.1,1.4-0.2,1.4-1.5v-5.9c0-1.3-0.1-1.4-1.3-1.4v-0.5H98.3z M96.5,47.6c0,1.2,0.5,1.5,1.7,1.5c2.9,0,4.2-2.1,4.2-4.4
		c0-1.5-0.6-2.8-1.7-3.5c-0.7-0.5-1.6-0.7-2.7-0.7c-0.7,0-1.1,0.1-1.2,0.2c-0.1,0.1-0.2,0.3-0.2,0.9V47.6z"/>
	<path d="M113.1,47.2c-0.1,0.6-0.4,1.9-0.5,2.4H105v-0.4c1.4-0.1,1.5-0.2,1.5-1.5v-5.9c0-1.4-0.1-1.4-1.3-1.5v-0.5h7
		c0,0.4,0.1,1.4,0.1,2.2l-0.5,0.1c-0.1-0.6-0.3-1-0.5-1.3c-0.2-0.3-0.6-0.4-1.7-0.4h-1.1c-0.5,0-0.5,0-0.5,0.5v3.4h1.4
		c1.4,0,1.5-0.1,1.7-1.1h0.5v2.9h-0.5c-0.2-1.1-0.3-1.2-1.7-1.2H108v2.8c0,0.7,0.1,1,0.4,1.2c0.3,0.2,0.9,0.2,1.6,0.2
		c1.1,0,1.6-0.1,1.9-0.5c0.3-0.3,0.6-0.8,0.8-1.4L113.1,47.2z"/>
	<path d="M127.2,49.8c-0.2,0-0.4,0-0.5,0c-1.2-0.1-1.9-0.4-2.6-1.4c-0.5-0.7-1-1.6-1.5-2.4c-0.3-0.4-0.5-0.6-1.3-0.6h-0.4v2.3
		c0,1.3,0.1,1.4,1.4,1.5v0.4h-4.2v-0.4c1.2-0.1,1.4-0.2,1.4-1.5v-5.9c0-1.3-0.1-1.4-1.3-1.4v-0.5h3.9c1.2,0,1.9,0.1,2.5,0.5
		c0.6,0.4,1,1.1,1,2c0,1.3-0.8,2.1-1.9,2.5c0.3,0.5,0.9,1.5,1.4,2.2c0.6,0.8,0.9,1.2,1.2,1.6c0.4,0.4,0.7,0.6,1.1,0.7L127.2,49.8z
		 M121.5,44.9c0.8,0,1.3-0.1,1.7-0.4c0.6-0.5,0.8-1,0.8-1.8c0-1.6-1.1-2.2-2.2-2.2c-0.5,0-0.7,0.1-0.8,0.1c-0.1,0.1-0.2,0.3-0.2,0.6
		v3.7H121.5z"/>
	<path d="M133.1,39.7c2.7,0,5.1,2,5.1,5c0,3.2-2.4,5.2-5.3,5.2c-2.9,0-5.2-2.1-5.2-5C127.7,42.2,129.8,39.7,133.1,39.7L133.1,39.7z
		 M132.8,40.3c-1.7,0-3.4,1.4-3.4,4.2c0,2.8,1.6,4.8,3.8,4.8c1.7,0,3.3-1.4,3.3-4.3C136.5,41.9,134.8,40.3,132.8,40.3L132.8,40.3z"
		/>
	<path d="M144.8,42.3c-0.3-1-0.7-2.1-2-2.1c-1.1,0-1.7,0.8-1.7,1.6c0,1.1,0.7,1.6,2,2.2c1.3,0.6,2.7,1.3,2.7,3
		c0,1.6-1.4,2.9-3.5,2.9c-0.6,0-1.1-0.1-1.5-0.2c-0.4-0.1-0.6-0.2-0.8-0.3c-0.1-0.3-0.3-1.7-0.4-2.4l0.5-0.1c0.3,1,1,2.5,2.6,2.5
		c1.1,0,1.8-0.7,1.8-1.8c0-1.1-0.8-1.6-2-2.2c-1.1-0.5-2.5-1.3-2.5-2.9c0-1.5,1.2-2.7,3.2-2.7c0.7,0,1.4,0.2,2,0.4
		c0.1,0.5,0.1,1.1,0.3,2.1L144.8,42.3z"/>
	<path d="M152.2,42.3c-0.3-1-0.7-2.1-2-2.1c-1.1,0-1.7,0.8-1.7,1.6c0,1.1,0.7,1.6,2,2.2c1.3,0.6,2.7,1.3,2.7,3
		c0,1.6-1.4,2.9-3.5,2.9c-0.6,0-1.1-0.1-1.5-0.2c-0.4-0.1-0.6-0.2-0.8-0.3c-0.1-0.3-0.3-1.7-0.4-2.4l0.5-0.1c0.3,1,1,2.5,2.6,2.5
		c1.1,0,1.8-0.7,1.8-1.8c0-1.1-0.8-1.6-2-2.2c-1.1-0.5-2.5-1.3-2.5-2.9c0-1.5,1.2-2.7,3.2-2.7c0.7,0,1.4,0.2,2,0.4
		c0.1,0.5,0.1,1.1,0.3,2.1L152.2,42.3z"/>
	<path d="M154,49.7v-0.4c1.3-0.1,1.4-0.2,1.4-1.5v-5.9c0-1.3-0.1-1.4-1.4-1.5v-0.5h4.2v0.5c-1.2,0.1-1.4,0.2-1.4,1.5v5.9
		c0,1.3,0.1,1.4,1.4,1.5v0.4H154z"/>
</g>
</svg>
