<svg enable-background="new 0 0 66.1 50.9" viewBox="0 0 66.1 50.9" xmlns="http://www.w3.org/2000/svg"><path d="m8.9 23.7h8c2.5 0 4.5.2 6.2.5 1.6.3 2.9.8 4.1 1.4 1.7 1.1 3.1 2.3 3.9 4 .8 1.5 1.2 3.9 1.2 6.8 0 2.8-.4 4.9-1.4 6.6-.8 1.7-2.1 2.9-4.1 3.7-2.3 1.1-6.6 1.5-12.6 1.5h-5.3zm6.4 21.8c3.9 0 6.6-.6 8-1.8s2.1-3.5 2.1-7.1c0-3.9-.6-6.5-1.9-7.9-1.4-1.4-3.7-2.2-7.2-2.2h-1z"/><path d="m8.1 2.2h5.4l2.5 6.8.4 1.2.8 2.6c.2.5.2.9.4 1.2s.2.8.4 1.1l.2.9c0-.2 0-.3.2-.5 0-.2 0-.3.2-.3l.6-2.2 1-2.8c0-.3.2-.5.2-.8 0-.2.2-.5.2-.6l2.7-6.8h5l-8 18.5h-4.5z"/><path d="m34.7 5.2h9.3c3.9 0 6.8.6 8.5 2 2.3 1.7 3.5 4.4 3.5 7.8 0 2.6-.6 4.8-1.9 6.3-1.4 1.5-3.1 2.6-5.4 2.9l9.7 18h-7.2l-9.7-18.2v18.2h-7.2v-37zm7 16.4c2.7 0 4.7-.5 5.8-1.4 1.2-.9 1.7-2.5 1.7-4.5 0-1.1-.2-2.2-.4-2.9s-.6-1.5-1.2-2-1.2-.9-1.9-1.1c-.7-.3-1.7-.3-2.9-.3h-1.2c.1 0 .1 12.2.1 12.2z"/></svg>