<?xml version="1.0" encoding="utf-8"?>
<!-- Generator: Adobe Illustrator 22.1.0, SVG Export Plug-In . SVG Version: 6.00 Build 0)  -->
<svg version="1.1" id="Calque_1" xmlns="http://www.w3.org/2000/svg" xmlns:xlink="http://www.w3.org/1999/xlink" x="0px" y="0px"
	 viewBox="0 0 66.1 50.9" style="enable-background:new 0 0 66.1 50.9;" xml:space="preserve">
<g>
	<g>
		<path d="M8.9,23.7h8c2.5,0,4.5,0.2,6.2,0.5c1.6,0.3,2.9,0.8,4.1,1.4c1.7,1.1,3.1,2.3,3.9,4c0.8,1.5,1.2,3.9,1.2,6.8
			c0,2.8-0.4,4.9-1.4,6.6c-0.8,1.7-2.1,2.9-4.1,3.7c-2.3,1.1-6.6,1.5-12.6,1.5H8.9V23.7z M15.3,45.5c3.9,0,6.6-0.6,8-1.8
			c1.4-1.2,2.1-3.5,2.1-7.1c0-3.9-0.6-6.5-1.9-7.9c-1.4-1.4-3.7-2.2-7.2-2.2h-1V45.5z"/>
	</g>
	<g>
		<path d="M8.1,2.2h5.4l2.5,6.8l0.4,1.2l0.8,2.6c0.2,0.5,0.2,0.9,0.4,1.2c0.2,0.3,0.2,0.8,0.4,1.1l0.2,0.9c0-0.2,0-0.3,0.2-0.5
			c0-0.2,0-0.3,0.2-0.3l0.6-2.2l1-2.8c0-0.3,0.2-0.5,0.2-0.8c0-0.2,0.2-0.5,0.2-0.6l2.7-6.8h5l-8,18.5h-4.5L8.1,2.2z"/>
	</g>
	<g>
		<path d="M34.7,5.2H44c3.9,0,6.8,0.6,8.5,2C54.8,8.9,56,11.6,56,15c0,2.6-0.6,4.8-1.9,6.3c-1.4,1.5-3.1,2.6-5.4,2.9l9.7,18h-7.2
			l-9.7-18.2v18.2h-7.2v-37H34.7z M41.7,21.6c2.7,0,4.7-0.5,5.8-1.4c1.2-0.9,1.7-2.5,1.7-4.5c0-1.1-0.2-2.2-0.4-2.9s-0.6-1.5-1.2-2
			c-0.6-0.5-1.2-0.9-1.9-1.1C45,9.4,44,9.4,42.8,9.4h-1.2C41.7,9.4,41.7,21.6,41.7,21.6z"/>
	</g>
</g>
</svg>
