<svg enable-background="new 0 0 1366 100" viewBox="0 0 1366 100" xmlns="http://www.w3.org/2000/svg"><path d="m561.3 48.5c1.7 4.1 5.1 9.5 9.2 11.6.7.4 1.6.2 2.1-.5 2.2-3.8 3.4-8.3 6.2-11.8-.6.1-1.2.2-1.8.2 8 4.6 11.8 13.8 19.2 19.2.6.5 1.7.1 2.1-.5 4.2-7.9 5.5-16.7 7.5-25.3 2.1-9.6 6.7-18.2 9.7-27.5.6-1.8-2.3-2.6-2.9-.8-2.9 8.8-7.2 17-9.3 26-2.1 8.9-3.2 18-7.5 26.2.7-.2 1.4-.4 2.1-.5-7.4-5.5-11-14.6-19.2-19.2-.5-.3-1.4-.3-1.8.2-3 3.7-4.2 8.3-6.6 12.4.7-.2 1.4-.4 2.1-.5-3.4-1.7-6.4-6.3-7.8-9.8-1.1-2-4.1-1.2-3.3.6z"/><path d="m621.5 42.3c-3.7-1.3-8.1-.9-9.3 3.5-.9 3.5.6 7.8 3.6 9.8 3.5 2.5 9.4 1.1 10.9-3.2 1.7-4.8-2.6-9.8-7-11.2-1.8-.6-2.6 2.3-.8 2.9 2.6.9 6.1 4.2 4.9 7.3-1.1 2.8-5.2 3.1-7.1 1.1-1.4-1.4-2.2-3.9-1.8-5.8.6-2.8 3.5-2.3 5.6-1.5 2 .7 2.8-2.2 1-2.9z"/><path d="m631.5 38.4c.4 13.2-5.3 25.4-7.6 38.2-.3 1.9 2.6 2.7 2.9.8 2.3-13.1 8.2-25.5 7.7-39-.1-1.9-3.1-1.9-3 0z"/><path d="m634.2 40.1c5.2-3.2 12.3 1.5 15 6.1 2.5 4.3-.7 6.7-5.4 6-3.4-.5-6.5-2.2-9.7-3.2-1.2-.4-2.4 1.1-1.7 2.2 6.7 10.5 14 20.8 23.4 29.1 1.4 1.3 3.6-.8 2.1-2.1-9.2-8.2-16.3-18.2-22.9-28.5-.6.7-1.1 1.5-1.7 2.2 5 1.5 10.8 5.2 16.2 2.7 3.4-1.5 4.5-4.5 3.3-7.9-2.6-7.3-13-13.6-20.2-9.3-1.6 1.1-.1 3.7 1.6 2.7z"/><path d="m655.4 25.2c-.1 11.1 3.4 21.5 6.7 32 3 9.3 4 19.3 8.8 27.8.9 1.7 3.5.2 2.6-1.5-4.7-8.3-5.6-18.1-8.5-27.1-3.3-10.2-6.7-20.4-6.6-31.2 0-2-3-2-3 0z"/><path d="m663.9 53.1c3.8-3.1 6.5-7 9.1-11.1 3.2-4.9 6.8-9.6 10.9-13.9 8.3-8.6 20.4-17.5 32.6-18.6 1.9-.2 1.9-3.2 0-3-11.5 1.1-22.7 8.3-31.1 16-4.5 4.1-8.6 8.8-12.2 13.8-3.6 5.1-6.5 10.6-11.4 14.7-1.5 1.2.6 3.3 2.1 2.1z"/><path d="m661.1 53.5c2.5 5 7.7 8.2 12.4 10.9 5.9 3.3 12 6.6 18.2 9.4 6.9 3.2 14.3 5.4 21.5 7.8 8.4 2.9 16 7.9 24.5 10.5 10.6 3.3 21-1 27.5-10 3.5-4.9 8.4-16.7-1.4-17.3-1.9-.1-1.9 2.9 0 3 5.5.4 1.8 7.9.3 10.5-2 3.5-4.9 6-8.1 8.3-11.6 8.7-23.6-.6-34.9-5.3-11.2-4.7-22.8-7.3-33.6-13.1-7.8-4.2-19.6-7.9-23.8-16.3-.9-1.7-3.5-.1-2.6 1.6z"/><path d="m757.8 70.9c1.9 0 1.9-3 0-3s-1.9 3 0 3z"/><path d="m752.3 66.7c1.9 0 1.9-3 0-3-2 0-2 3 0 3z"/><path d="m722 9.5c1.9 0 1.9-3 0-3s-1.9 3 0 3z"/><path d="m727.1 10.6c1.9 0 1.9-3 0-3s-1.9 3 0 3z"/><path d="m561 46.7c1.9 0 1.9-3 0-3s-1.9 3 0 3z"/><path d="m559.8 44.6c1.9 0 1.9-3 0-3-2 0-2 3 0 3z"/><path d="m557.6 41.3c1.9 0 1.9-3 0-3s-1.9 3 0 3z"/><path d="m689.4 42c-2.1-1.9-5.9-3.5-8.6-1.7-2.8 1.9-1.4 5.7.6 7.6 1.1 1 2.5 1.4 3.9 1.4 1.7 0 3.9-1.2 5.5-.4 2.6 1.2 1.9 4.2-.2 5.5-1.5.9-3.5 1.3-5.2.9-2.7-.6-5-2.6-7.4-3.8-1.7-.9-3.2 1.7-1.5 2.6 4 2 7.4 5 12.2 4.2 3.5-.6 7.6-3.4 7-7.5-.5-3.5-3.7-5.4-7-5-2.3.3-4.9 1.4-6.1-1.4-1.4-3.1 3.7-1.1 4.7-.2 1.5 1.2 3.6-.9 2.1-2.2z"/></svg>